# xmcd
#
# Track frame offsets:
#	150
#	19289
#	33946
#	52938
#	70874
#	84646
#	107802
#	127541
#	145528
#	165909
#	182531
#	200827
#	218646
#	235433
#	251224
#
# Disc length: 3552 seconds
#
# Revision: 1
# Processed by: cddbd v1.5.2PL0 Copyright (c) Steve Scherf et al.
# Submitted via: audiograbber 1.83.01
#
DISCID=c60dde0f
DTITLE=Chartbuster Karaoke - CB60398
DYEAR=2009
DGENRE=Karaoke
TTITLE0=Tim McGraw - Nothin' To Die For
TTITLE1=Trace Adkins - Marry For Money
TTITLE2=Taylor Swifty - Fearless
TTITLE3=Craig Morgan - God Must Really Love Me
TTITLE4=Randy Houser - Boots On
TTITLE5=Wynonna - Sing
TTITLE6=Dean Brody - Brothers
TTITLE7=Keith Anderson - She Could've Been Mine
TTITLE8=CarrieI Underwood - I Told You So
TTITLE9=Mark Chesnutt - Things To Do In Wichita
TTITLE10=Josh Gracin - Telluride
TTITLE11=John Rich - Another You
TTITLE12=Whitney Duncan - The Bed That You Made
TTITLE13=Trent Tomlinson - That's How It Still Ought To Be
TTITLE14=Kevin Fowler - Cheaper To Keep Her
EXTD=
EXTT0=
EXTT1=
EXTT2=
EXTT3=
EXTT4=
EXTT5=
EXTT6=
EXTT7=
EXTT8=
EXTT9=
EXTT10=
EXTT11=
EXTT12=
EXTT13=
EXTT14=
PLAYORDER=
